<svg width="20" height="20" viewBox="0 0 20 20" fill="none" xmlns="http://www.w3.org/2000/svg">
<path d="M17.2727 0H2.72727C2.00396 0 1.31026 0.287337 0.7988 0.7988C0.287337 1.31026 0 2.00396 0 2.72727L0 17.2727C0 17.996 0.287337 18.6897 0.7988 19.2012C1.31026 19.7127 2.00396 20 2.72727 20H17.2727C17.996 20 18.6897 19.7127 19.2012 19.2012C19.7127 18.6897 20 17.996 20 17.2727V2.72727C20 2.00396 19.7127 1.31026 19.2012 0.7988C18.6897 0.287337 17.996 0 17.2727 0V0ZM16.2375 5.78864L14.2852 14.4148C14.1932 14.8193 13.6795 15.0023 13.3193 14.7557L10.3716 12.7557L8.87045 14.175C8.80924 14.2324 8.73494 14.2741 8.654 14.2963C8.57306 14.3185 8.48791 14.3206 8.40596 14.3025C8.324 14.2844 8.24771 14.2465 8.1837 14.1922C8.11969 14.1379 8.0699 14.0688 8.03864 13.9909L7.49659 12.4L6.95455 10.8091L4.04886 10.0136C3.96762 9.9959 3.89451 9.95182 3.84091 9.88824C3.7873 9.82467 3.75621 9.74517 3.75245 9.6621C3.74869 9.57903 3.77248 9.49704 3.82013 9.42889C3.86777 9.36073 3.9366 9.31023 4.01591 9.28523L15.2409 5.24091L15.4477 5.16705C15.883 5.01477 16.333 5.36705 16.2375 5.78864Z" fill="#222834"/>
</svg>
