<svg width="30" height="24" viewBox="0 0 30 24" fill="none" xmlns="http://www.w3.org/2000/svg">
<path d="M28.7791 0.196289H23.8434C23.1702 0.196289 22.6225 0.744015 22.6225 1.4172V3.33339H21.3255V2.16495C21.3255 1.07943 20.4423 0.196289 19.3568 0.196289H18.8455C17.76 0.196289 16.8768 1.07943 16.8768 2.16495V3.33345H15.6999V2.16495C15.6999 1.07943 14.8167 0.196289 13.7312 0.196289H13.2199C12.1344 0.196289 11.2513 1.07943 11.2513 2.16495V3.33345H10.0743V2.16495C10.0743 1.07943 9.19117 0.196289 8.10559 0.196289H7.59436C6.50884 0.196289 5.62569 1.07943 5.62569 2.16495V3.33345H4.44862V2.16495C4.44862 1.07943 3.56548 0.196289 2.4799 0.196289H1.96866C0.883143 0.196289 0 1.07943 0 2.16495V10.487C0 10.7304 0.197266 10.9277 0.440719 10.9277C0.684114 10.9277 0.881439 10.7304 0.881439 10.487V2.16495C0.881439 1.56546 1.36917 1.07773 1.96866 1.07773H2.4799C3.07939 1.07773 3.56718 1.56546 3.56718 2.16495V21.8351C3.56718 22.4346 3.07939 22.9223 2.4799 22.9223H1.96866C1.36917 22.9223 0.881439 22.4346 0.881439 21.8351V12.2498C0.881439 12.0064 0.684114 11.8091 0.440719 11.8091C0.197266 11.8091 0 12.0064 0 12.2498V21.8351C0 22.9206 0.883143 23.8037 1.96866 23.8037H2.4799C3.56548 23.8037 4.44862 22.9206 4.44862 21.8351V21.1662H5.62558V21.8351C5.62558 22.9206 6.50872 23.8037 7.59424 23.8037H8.10548C9.19106 23.8037 10.0742 22.9206 10.0742 21.8351V21.1662H11.2512V21.8351C11.2512 22.9206 12.1343 23.8037 13.2198 23.8037H13.7311C14.8166 23.8037 15.6998 22.9206 15.6998 21.8351V21.1662H16.8767V21.8351C16.8767 22.9206 17.7599 23.8037 18.8454 23.8037H19.3567C20.4422 23.8037 21.3254 22.9206 21.3254 21.8351V21.1662H22.6224V22.5828C22.6224 23.256 23.1701 23.8037 23.8433 23.8037H28.779C29.4522 23.8037 29.9999 23.256 29.9999 22.5828V1.4172C30 0.744015 29.4523 0.196289 28.7791 0.196289V0.196289ZM4.44862 20.2848V4.21488H5.62558V20.2849H4.44862V20.2848ZM9.19276 21.8351C9.19276 22.4346 8.70497 22.9223 8.10548 22.9223H7.59424C6.99474 22.9223 6.50702 22.4346 6.50702 21.8351V2.16495C6.50702 1.56546 6.99474 1.07773 7.59424 1.07773H8.10548C8.70497 1.07773 9.19276 1.56546 9.19276 2.16495V21.8351ZM14.8184 21.8351C14.8184 22.4346 14.3306 22.9223 13.7311 22.9223H13.2199C12.6204 22.9223 12.1327 22.4346 12.1327 21.8351V14.3906C12.1327 14.1472 11.9354 13.9498 11.6919 13.9498C11.4485 13.9498 11.2512 14.1472 11.2512 14.3906V20.2849H10.0743V4.21488H11.2512V12.6277C11.2512 12.8711 11.4485 13.0684 11.6919 13.0684C11.9354 13.0684 12.1327 12.8711 12.1327 12.6277V2.16495C12.1327 1.56546 12.6204 1.07773 13.2199 1.07773H13.7311C14.3306 1.07773 14.8184 1.56546 14.8184 2.16495V21.8351ZM15.6998 20.2848V4.21488H16.8768V20.2849H15.6998V20.2848ZM20.444 21.8351C20.444 22.4346 19.9562 22.9223 19.3567 22.9223H18.8455C18.246 22.9223 17.7582 22.4346 17.7582 21.8351V2.16495C17.7582 1.56546 18.246 1.07773 18.8455 1.07773H19.3567C19.9562 1.07773 20.444 1.56546 20.444 2.16495V21.8351ZM21.3254 20.2848V4.21488H22.6224V20.2849H21.3254V20.2848ZM29.1186 22.5828C29.1186 22.7701 28.9663 22.9223 28.7791 22.9223H23.8434C23.6562 22.9223 23.5039 22.77 23.5039 22.5828V1.4172C23.5039 1.22998 23.6562 1.07773 23.8434 1.07773H28.7791C28.9663 1.07773 29.1186 1.23004 29.1186 1.4172V22.5828Z" fill="#CFD4E0"/>
<path d="M27.127 13.2091H25.4954C25.252 13.2091 25.0547 13.4064 25.0547 13.6498C25.0547 13.8932 25.252 14.0905 25.4954 14.0905H27.127C27.3705 14.0905 27.5677 13.8932 27.5677 13.6498C27.5677 13.4064 27.3704 13.2091 27.127 13.2091Z" fill="#CFD4E0"/>
<path d="M27.127 15.4453H25.4954C25.252 15.4453 25.0547 15.6426 25.0547 15.886C25.0547 16.1294 25.252 16.3267 25.4954 16.3267H27.127C27.3705 16.3267 27.5677 16.1294 27.5677 15.886C27.5677 15.6426 27.3704 15.4453 27.127 15.4453Z" fill="#CFD4E0"/>
<path d="M27.127 17.6816H25.4954C25.252 17.6816 25.0547 17.879 25.0547 18.1224C25.0547 18.3658 25.252 18.5631 25.4954 18.5631H27.127C27.3705 18.5631 27.5677 18.3658 27.5677 18.1224C27.5677 17.879 27.3704 17.6816 27.127 17.6816Z" fill="#CFD4E0"/>
<path d="M26.4467 2.85571H26.1758C25.4864 2.85571 24.9255 3.4166 24.9255 4.106V5.54821C24.9255 6.23762 25.4864 6.79851 26.1758 6.79851H26.4467C27.1361 6.79851 27.697 6.23762 27.697 5.54821V4.106C27.6971 3.4166 27.1362 2.85571 26.4467 2.85571ZM26.8156 5.54827C26.8156 5.75171 26.6502 5.91713 26.4468 5.91713H26.1759C25.9725 5.91713 25.807 5.75165 25.807 5.54827V4.10606C25.807 3.90263 25.9725 3.73721 26.1759 3.73721H26.4468C26.6502 3.73721 26.8156 3.90269 26.8156 4.10606V5.54827Z" fill="#CFD4E0"/>
</svg>
